<svg xmlns="http://www.w3.org/2000/svg" width="51" height="50" viewBox="0 0 51 50">
    <path fill="#2A4C70" fill-rule="evenodd" d="M28.965 33.757c.112-.302.102-.63-.028-.923a1.175 1.175 0 0 0-1.568-.601c-3.252 1.498-3.82 4.352-3.842 4.472-.122.654.3 1.287.942 1.411a1.162 1.162 0 0 0 .525-.019c.438-.118.775-.487.859-.933.015-.071.39-1.765 2.492-2.733a1.19 1.19 0 0 0 .62-.674zm6.1-.402c.196.501.335 1.039.41 1.608.283 2.181-.368 4.741-1.885 7.404-3.339 5.863-8.753 8.035-12.37 7.573a.589.589 0 0 1-.478-.38.612.612 0 0 1 .1-.609c1.43-1.718 1.046-3.435.56-5.61-.51-2.274-1.087-4.852.477-7.863 1.97-3.793 4.32-5.155 5.945-5.63a6.428 6.428 0 0 1 1.017-.209l6.225 3.716zM49.63.378c1.25.737 1.725 2.332 1.09 3.652-.397.829-9.765 20.32-11.326 23.06-.782 1.373-2.23 3.241-3.586 4.879l-6.224-3.716c.722-2.01 1.592-4.208 2.363-5.562 1.542-2.707 13.52-20.698 14.029-21.463a2.72 2.72 0 0 1 3.654-.85zm-29.894 39.8c.065 1.253.323 2.402.555 3.439.5 2.23.697 3.357-.305 4.561a1.82 1.82 0 0 0-.39.836c-.382-.39-.67-.91-.789-1.568-.156-1.075-.49-1.617-1.153-1.879-.933-.33-1.961-.358-2.851-.358-.168 0-.335 0-.502.002-2.04.015-4.027.015-5.523-1.97-1.704-2.26-.718-4.297.235-6.266.505-1.043 1.026-2.121 1.132-3.217.028-.239-.02-.429-.146-.586-.482-.599-2.046-.722-3.559-.841-1.538-.122-3.127-.247-4.11-.843C.503 30.38.057 28.744.005 27.566c-.097-2.208 1.14-4.714 3.01-6.093.1-.075.24-.057.32.04.08.098.073.241-.017.33-1.46 1.427-2.881 4.855-1.698 6.769.638.994 1.693 1.42 3.525 1.42.532 0 1.088-.034 1.626-.067a26.754 26.754 0 0 1 1.573-.064c.616 0 1.098.047 1.519.148 1.443.28 2.74 1.246 3.296 2.46.668 1.46.313 3-.169 4.445a7.705 7.705 0 0 1-.17.429c-.298.715-.993 2.383-.512 2.998.044.038.182.113.58.113.566 0 1.376-.144 2.235-.297.963-.17 1.959-.348 2.751-.348.099 0 .194.003.282.009.527.032 1.046.139 1.58.32z"/>
</svg>
